<?xml version="1.0" encoding="UTF-8"?>
<svg xmlns="http://www.w3.org/2000/svg" viewBox="0 0 32 32"><path fill="#646464" d="M11.172 3.03a.534.534 0 0 0-1.012 0L1.893 27.563a.534.534 0 0 0 1.011.341l2.394-7.103h10.735l2.394 7.104a.533.533 0 1 0 1.011-.341L11.171 3.03zM5.658 19.733L10.666 4.87l5.008 14.863H5.657zm24.11-5.611c-.447-1.231-1.401-1.855-2.835-1.855-1.352 0-2.167.717-2.956 1.411l-.063.055a.534.534 0 0 0 .704.802l.063-.056c.756-.665 1.302-1.145 2.251-1.145.991 0 1.539.345 1.832 1.153.265.73.297 1.754.301 2.861-5.144.252-7.466 4.135-7.466 6.92 0 4 3.129 4 5.199 4h2.801a.533.533 0 0 0 .533-.533v-9.928c0-1.377 0-2.677-.365-3.683zM29.067 27.2h-2.268c-2.496 0-4.132-.204-4.132-2.933 0-2.343 1.991-5.607 6.4-5.852V27.2z" style="fill: #ffffff;"/></svg>
